<svg xmlns="http://www.w3.org/2000/svg" xmlns:xlink="http://www.w3.org/1999/xlink" width="3500" zoomAndPan="magnify" viewBox="0 0 300 374.999991" height="3500" preserveAspectRatio="xMidYMid meet" version="1.0"><defs><clipPath id="1636925d64"><path d="M 14 25.101562 L 349 25.101562 L 349 358.851562 L 14 358.851562 Z M 14 25.101562 " clip-rule="nonzero"/></clipPath></defs><path fill="#8bfeef" d="M 258.417969 141.046875 C 259.058594 144.15625 261.488281 146.585938 264.597656 147.226562 L 301.875 154.90625 C 304.492188 155.445312 307.207031 154.632812 309.09375 152.742188 L 358.421875 103.417969 C 360.320312 101.519531 361.132812 98.792969 360.582031 96.164062 C 360.03125 93.539062 358.191406 91.367188 355.691406 90.394531 L 326.597656 79.050781 L 315.253906 49.957031 C 314.28125 47.457031 312.109375 45.621094 309.480469 45.070312 C 306.855469 44.515625 304.128906 45.328125 302.230469 47.226562 L 252.902344 96.550781 C 251.011719 98.441406 250.199219 101.15625 250.738281 103.773438 Z M 258.417969 141.046875 " fill-opacity="1" fill-rule="evenodd"/><g clip-path="url(#1636925d64)"><path fill="#00adb5" d="M 181.699219 40.992188 C 98.308594 40.992188 30.707031 108.589844 30.707031 191.976562 C 30.707031 275.359375 98.308594 342.957031 181.699219 342.957031 C 265.089844 342.957031 332.691406 275.359375 332.691406 191.976562 C 332.691406 180.289062 331.363281 168.921875 328.855469 158.015625 C 327.875 153.738281 330.542969 149.472656 334.820312 148.492188 C 339.101562 147.507812 343.363281 150.179688 344.347656 154.453125 C 347.121094 166.523438 348.582031 179.082031 348.582031 191.976562 C 348.582031 284.136719 273.867188 358.851562 181.699219 358.851562 C 89.53125 358.851562 14.8125 284.136719 14.8125 191.976562 C 14.8125 99.8125 89.53125 25.101562 181.699219 25.101562 C 196.160156 25.101562 210.207031 26.941406 223.605469 30.410156 C 227.855469 31.507812 230.410156 35.84375 229.308594 40.089844 C 228.210938 44.339844 223.875 46.894531 219.628906 45.792969 C 207.515625 42.664062 194.808594 40.992188 181.699219 40.992188 Z M 181.699219 40.992188 " fill-opacity="1" fill-rule="evenodd"/></g><path fill="#00adb5" d="M 181.699219 136.351562 C 150.976562 136.351562 126.070312 161.253906 126.070312 191.976562 C 126.070312 222.695312 150.976562 247.601562 181.699219 247.601562 C 212.421875 247.601562 237.328125 222.695312 237.328125 191.976562 C 237.328125 187.585938 240.886719 184.027344 245.273438 184.027344 C 249.660156 184.027344 253.21875 187.585938 253.21875 191.976562 C 253.21875 231.472656 221.199219 263.492188 181.699219 263.492188 C 142.199219 263.492188 110.175781 231.472656 110.175781 191.976562 C 110.175781 152.476562 142.199219 120.457031 181.699219 120.457031 C 186.085938 120.457031 189.644531 124.015625 189.644531 128.402344 C 189.644531 132.792969 186.085938 136.351562 181.699219 136.351562 Z M 181.699219 136.351562 " fill-opacity="1" fill-rule="evenodd"/><path fill="#00adb5" d="M 330.363281 43.320312 C 333.464844 46.425781 333.464844 51.457031 330.363281 54.558594 L 313.574219 71.34375 C 310.472656 74.449219 305.441406 74.449219 302.335938 71.34375 C 299.234375 68.242188 299.234375 63.210938 302.335938 60.105469 L 319.121094 43.320312 C 322.226562 40.21875 327.257812 40.21875 330.363281 43.320312 Z M 256.640625 117.039062 C 259.746094 120.140625 259.746094 125.171875 256.640625 128.273438 L 187.320312 197.59375 C 184.214844 200.699219 179.183594 200.699219 176.078125 197.59375 C 172.976562 194.492188 172.976562 189.460938 176.078125 186.355469 L 245.402344 117.039062 C 248.507812 113.933594 253.535156 113.933594 256.640625 117.039062 Z M 256.640625 117.039062 " fill-opacity="1" fill-rule="evenodd"/><path fill="#00adb5" d="M 248.644531 131.390625 C 245.535156 130.75 243.105469 128.320312 242.464844 125.210938 L 234.785156 87.9375 C 234.246094 85.320312 235.058594 82.605469 236.949219 80.714844 L 286.277344 31.390625 C 288.175781 29.492188 290.902344 28.683594 293.53125 29.234375 C 296.15625 29.785156 298.328125 31.625 299.300781 34.125 L 310.648438 63.214844 L 339.738281 74.558594 C 342.242188 75.535156 344.078125 77.703125 344.628906 80.332031 C 345.179688 82.957031 344.371094 85.683594 342.472656 87.582031 L 293.144531 136.90625 C 291.253906 138.796875 288.539062 139.609375 285.921875 139.070312 Z M 284.933594 122.640625 L 322.628906 84.945312 L 301.621094 76.753906 C 299.550781 75.949219 297.914062 74.308594 297.105469 72.238281 L 288.914062 51.230469 L 251.21875 88.925781 L 256.976562 116.882812 Z M 284.933594 122.640625 " fill-opacity="1" fill-rule="evenodd"/></svg>